<svg xmlns="http://www.w3.org/2000/svg" xmlns:xlink="http://www.w3.org/1999/xlink" width="1920" zoomAndPan="magnify" viewBox="0 0 1440 809.999993" height="1080" preserveAspectRatio="xMidYMid meet" version="1.0"><defs><clipPath id="148b7cf1b7"><path d="M 414 593 L 1025 593 L 1025 725.101562 L 414 725.101562 Z M 414 593 " clip-rule="nonzero"/></clipPath><clipPath id="31397e5d26"><path d="M 882 84.601562 L 1430 84.601562 L 1430 659 L 882 659 Z M 882 84.601562 " clip-rule="nonzero"/></clipPath><clipPath id="7de7b152ba"><path d="M 9 84.601562 L 557 84.601562 L 557 659 L 9 659 Z M 9 84.601562 " clip-rule="nonzero"/></clipPath></defs><g clip-path="url(#148b7cf1b7)"><path fill="#f4c515" d="M 958.789062 593.683594 C 961.550781 602.738281 964.25 613.8125 966.453125 626.941406 C 969.410156 644.53125 970.453125 659.546875 970.570312 671.074219 C 864.800781 671.058594 574.074219 670.996094 468.5 670.96875 C 468.847656 649.015625 472.773438 618.324219 480.285156 593.683594 L 424.324219 593.683594 C 409.898438 653.132812 410.757812 725.121094 431.066406 725.121094 C 462.902344 725.121094 976.304688 725.242188 1008.140625 725.257812 C 1011.808594 725.257812 1014.839844 722.902344 1017.269531 718.707031 C 1028.285156 699.636719 1026.730469 642.433594 1014.917969 593.683594 L 958.789062 593.683594 " fill-opacity="1" fill-rule="nonzero"/></g><g clip-path="url(#31397e5d26)"><path fill="#0a3d83" d="M 994.683594 177.980469 C 978.871094 205.351562 969.816406 237.128906 969.816406 271 C 969.789062 344.601562 1012.457031 408.246094 1074.441406 438.515625 C 1037.972656 466.546875 961.203125 453.796875 925.742188 474.667969 C 919.300781 478.46875 913.492188 485.273438 908.390625 494.117188 C 879.542969 544.058594 872.84375 658.699219 897.136719 658.714844 C 925.683594 658.714844 1386.335938 658.820312 1414.914062 658.820312 C 1418.203125 658.820312 1420.917969 656.722656 1423.09375 652.953125 C 1439.824219 624.011719 1424.300781 497.117188 1386.382812 474.773438 C 1350.921875 453.890625 1274.152344 466.609375 1237.699219 438.542969 C 1271.164062 422.21875 1299.003906 396.175781 1317.53125 364.082031 C 1333.332031 336.710938 1342.382812 304.949219 1342.398438 271.078125 C 1342.429688 168.1875 1259.050781 84.765625 1156.144531 84.75 C 1087.128906 84.734375 1026.882812 122.230469 994.683594 177.980469 Z M 1036.75 202.289062 C 1061.328125 159.753906 1107.078125 133.320312 1156.144531 133.332031 C 1232.070312 133.363281 1293.8125 195.136719 1293.8125 271.0625 C 1293.796875 295.25 1287.460938 319.011719 1275.464844 339.773438 C 1261.628906 363.71875 1241.199219 382.777344 1216.394531 394.878906 C 1207.550781 399.195312 1200.398438 406 1195.617188 414.25 C 1192.222656 420.105469 1190.066406 426.699219 1189.355469 433.65625 C 1187.664062 450.390625 1194.726562 466.804688 1208.066406 477.066406 C 1238.800781 500.722656 1279.132812 504.8125 1314.710938 508.433594 C 1329.46875 509.941406 1351.242188 512.144531 1359.917969 515.78125 C 1364.003906 521.363281 1372.320312 539.699219 1377.496094 570.613281 C 1380.148438 586.398438 1381.101562 599.871094 1381.207031 610.222656 C 1286.300781 610.191406 1025.449219 610.144531 930.722656 610.117188 C 931.144531 582.835938 937.710938 540.527344 950.472656 518.421875 C 951.199219 517.171875 951.785156 516.265625 952.222656 515.660156 C 960.960938 512.054688 982.65625 509.851562 997.398438 508.359375 C 1032.976562 504.769531 1073.308594 500.679688 1104.058594 477.050781 C 1109.175781 473.097656 1113.386719 468.253906 1116.523438 462.820312 C 1121.53125 454.128906 1123.824219 443.945312 1122.785156 433.640625 C 1121.09375 416.90625 1110.878906 402.242188 1095.761719 394.847656 C 1048.035156 371.535156 1018.386719 324.082031 1018.402344 271 C 1018.402344 246.828125 1024.769531 223.066406 1036.75 202.289062 " fill-opacity="1" fill-rule="nonzero"/></g><g clip-path="url(#7de7b152ba)"><path fill="#0a3d83" d="M 121.84375 177.980469 C 106.046875 205.351562 96.976562 237.128906 96.976562 271 C 96.960938 344.601562 139.632812 408.246094 201.601562 438.515625 C 165.132812 466.546875 88.375 453.796875 52.902344 474.667969 C 46.460938 478.46875 40.667969 485.273438 35.566406 494.117188 C 6.71875 544.058594 0.0195312 658.699219 24.3125 658.714844 C 52.859375 658.714844 513.496094 658.820312 542.074219 658.820312 C 545.363281 658.820312 548.09375 656.722656 550.28125 652.953125 C 566.984375 624.011719 551.457031 497.117188 513.554688 474.773438 C 478.082031 453.890625 401.3125 466.609375 364.875 438.542969 C 398.324219 422.21875 426.164062 396.175781 444.707031 364.082031 C 460.503906 336.710938 469.558594 304.949219 469.574219 271.078125 C 469.601562 168.1875 386.207031 84.765625 283.320312 84.75 C 214.304688 84.734375 154.058594 122.230469 121.84375 177.980469 Z M 163.925781 202.289062 C 188.488281 159.753906 234.253906 133.320312 283.320312 133.332031 C 359.230469 133.363281 420.988281 195.136719 420.972656 271.0625 C 420.972656 295.25 414.636719 319.011719 402.625 339.773438 C 388.804688 363.71875 368.390625 382.777344 343.570312 394.878906 C 334.710938 399.195312 327.574219 406 322.792969 414.25 C 319.398438 420.105469 317.222656 426.699219 316.53125 433.65625 C 314.824219 450.390625 321.902344 466.804688 335.226562 477.066406 C 365.976562 500.722656 406.292969 504.8125 441.886719 508.433594 C 456.640625 509.941406 478.398438 512.144531 487.089844 515.78125 C 491.179688 521.363281 499.492188 539.699219 504.667969 570.613281 C 507.308594 586.398438 508.273438 599.871094 508.367188 610.222656 C 413.457031 610.191406 152.609375 610.144531 57.882812 610.117188 C 58.304688 582.835938 64.867188 540.527344 77.632812 518.421875 C 78.359375 517.171875 78.945312 516.265625 79.382812 515.660156 C 88.121094 512.054688 109.832031 509.851562 124.558594 508.359375 C 160.152344 504.769531 200.46875 500.679688 231.21875 477.050781 C 236.347656 473.097656 240.558594 468.253906 243.683594 462.820312 C 248.707031 454.128906 251 443.945312 249.960938 433.640625 C 248.269531 416.90625 238.039062 402.242188 222.9375 394.847656 C 175.195312 371.535156 145.5625 324.082031 145.5625 271 C 145.5625 246.828125 151.929688 223.066406 163.925781 202.289062 " fill-opacity="1" fill-rule="nonzero"/></g><path fill="#f4c515" d="M 476.257812 608.863281 C 479.804688 593.457031 484.539062 579.109375 490.515625 568.757812 C 491.316406 567.371094 491.996094 566.375 492.476562 565.695312 C 502.210938 561.667969 526.394531 559.222656 542.8125 557.5625 C 582.480469 553.550781 627.414062 548.992188 661.695312 522.648438 C 667.398438 518.257812 672.089844 512.855469 675.578125 506.804688 C 681.175781 497.117188 683.722656 485.757812 682.578125 474.273438 C 680.675781 455.625 669.285156 439.269531 652.445312 431.046875 C 599.257812 405.0625 566.214844 352.164062 566.230469 293.015625 C 566.230469 266.066406 573.304688 239.585938 586.691406 216.425781 C 614.074219 169.019531 665.058594 139.566406 719.742188 139.582031 C 804.355469 139.609375 873.175781 208.460938 873.175781 293.089844 C 873.175781 320.039062 866.097656 346.503906 852.730469 369.664062 C 837.308594 396.339844 814.558594 417.585938 786.898438 431.074219 C 777.046875 435.875 769.066406 443.464844 763.738281 452.667969 C 759.964844 459.199219 757.550781 466.546875 756.769531 474.289062 C 754.882812 492.9375 762.757812 511.242188 777.605469 522.664062 C 811.855469 549.039062 856.804688 553.609375 896.488281 557.636719 C 912.917969 559.3125 937.179688 561.773438 946.867188 565.816406 C 950.550781 570.871094 957.339844 585.25 962.847656 608.863281 L 1018.222656 608.863281 C 1010.511719 569.164062 996.175781 531.820312 976.351562 520.128906 C 936.835938 496.847656 851.265625 511.015625 810.632812 479.75 C 847.933594 461.554688 878.953125 432.523438 899.609375 396.75 C 917.234375 366.253906 927.328125 330.859375 927.34375 293.089844 C 927.375 178.433594 834.429688 85.441406 719.753906 85.414062 C 642.835938 85.398438 575.691406 127.207031 539.792969 189.34375 C 522.15625 219.851562 512.078125 255.25 512.078125 293 C 512.046875 375.035156 559.621094 445.96875 628.679688 479.707031 C 588.03125 510.953125 502.496094 496.742188 462.949219 520.007812 C 455.765625 524.246094 449.308594 531.820312 443.605469 541.675781 C 433.570312 559.054688 425.9375 583.484375 421.019531 608.863281 L 476.257812 608.863281 " fill-opacity="1" fill-rule="nonzero"/></svg>