<svg xmlns="http://www.w3.org/2000/svg" xmlns:xlink="http://www.w3.org/1999/xlink" width="1687" zoomAndPan="magnify" viewBox="0 0 1265.25 1265.24994" height="1687" preserveAspectRatio="xMidYMid meet" version="1.0"><defs><g/><clipPath id="d9a07f5e08"><path d="M 0 0 L 1263.765625 0 L 1263.765625 1263.765625 L 0 1263.765625 Z M 0 0 " clip-rule="nonzero"/></clipPath><clipPath id="8eca384dab"><path d="M 631.882812 0 C 282.902344 0 0 282.902344 0 631.882812 C 0 980.859375 282.902344 1263.765625 631.882812 1263.765625 C 980.859375 1263.765625 1263.765625 980.859375 1263.765625 631.882812 C 1263.765625 282.902344 980.859375 0 631.882812 0 Z M 631.882812 0 " clip-rule="nonzero"/></clipPath><clipPath id="d7311993a4"><path d="M 302 180 L 827 180 L 827 483 L 302 483 Z M 302 180 " clip-rule="nonzero"/></clipPath><clipPath id="d2bb390d9a"><path d="M 215.464844 330.742188 L 739.417969 29.96875 L 985.332031 458.363281 L 461.382812 759.132812 Z M 215.464844 330.742188 " clip-rule="nonzero"/></clipPath><clipPath id="85fe5ea9cf"><path d="M 215.464844 330.742188 L 739.417969 29.96875 L 985.332031 458.363281 L 461.382812 759.132812 Z M 215.464844 330.742188 " clip-rule="nonzero"/></clipPath><clipPath id="561778f9c3"><path d="M 401 298 L 830 298 L 830 545 L 401 545 Z M 401 298 " clip-rule="nonzero"/></clipPath><clipPath id="8eadca03be"><path d="M 215.464844 330.742188 L 739.417969 29.96875 L 985.332031 458.363281 L 461.382812 759.132812 Z M 215.464844 330.742188 " clip-rule="nonzero"/></clipPath><clipPath id="f4fe4a8784"><path d="M 215.464844 330.742188 L 739.417969 29.96875 L 985.332031 458.363281 L 461.382812 759.132812 Z M 215.464844 330.742188 " clip-rule="nonzero"/></clipPath><clipPath id="5fcac2e7fa"><path d="M 438 362 L 866 362 L 866 609 L 438 609 Z M 438 362 " clip-rule="nonzero"/></clipPath><clipPath id="b5b0690fb4"><path d="M 215.464844 330.742188 L 739.417969 29.96875 L 985.332031 458.363281 L 461.382812 759.132812 Z M 215.464844 330.742188 " clip-rule="nonzero"/></clipPath><clipPath id="18e1a79345"><path d="M 215.464844 330.742188 L 739.417969 29.96875 L 985.332031 458.363281 L 461.382812 759.132812 Z M 215.464844 330.742188 " clip-rule="nonzero"/></clipPath><clipPath id="3fbec1398a"><path d="M 116 594.261719 L 1084 594.261719 L 1084 828 L 116 828 Z M 116 594.261719 " clip-rule="nonzero"/></clipPath><clipPath id="b3414228dc"><path d="M 302 180 L 827 180 L 827 483 L 302 483 Z M 302 180 " clip-rule="nonzero"/></clipPath><clipPath id="4aeafb420b"><path d="M 215.464844 330.742188 L 739.417969 29.96875 L 985.332031 458.363281 L 461.382812 759.132812 Z M 215.464844 330.742188 " clip-rule="nonzero"/></clipPath><clipPath id="6e1134da7e"><path d="M 215.464844 330.742188 L 739.417969 29.96875 L 985.332031 458.363281 L 461.382812 759.132812 Z M 215.464844 330.742188 " clip-rule="nonzero"/></clipPath><clipPath id="e79659f223"><path d="M 401 298 L 830 298 L 830 545 L 401 545 Z M 401 298 " clip-rule="nonzero"/></clipPath><clipPath id="3cecbb2cc8"><path d="M 215.464844 330.742188 L 739.417969 29.96875 L 985.332031 458.363281 L 461.382812 759.132812 Z M 215.464844 330.742188 " clip-rule="nonzero"/></clipPath><clipPath id="296d821f1a"><path d="M 215.464844 330.742188 L 739.417969 29.96875 L 985.332031 458.363281 L 461.382812 759.132812 Z M 215.464844 330.742188 " clip-rule="nonzero"/></clipPath><clipPath id="638393bfd4"><path d="M 438 362 L 866 362 L 866 609 L 438 609 Z M 438 362 " clip-rule="nonzero"/></clipPath><clipPath id="7fcf625650"><path d="M 215.464844 330.742188 L 739.417969 29.96875 L 985.332031 458.363281 L 461.382812 759.132812 Z M 215.464844 330.742188 " clip-rule="nonzero"/></clipPath><clipPath id="d0021fa457"><path d="M 215.464844 330.742188 L 739.417969 29.96875 L 985.332031 458.363281 L 461.382812 759.132812 Z M 215.464844 330.742188 " clip-rule="nonzero"/></clipPath></defs><g clip-path="url(#d9a07f5e08)"><g clip-path="url(#8eca384dab)"><path fill="#2a3e77" d="M 0 0 L 1263.765625 0 L 1263.765625 1263.765625 L 0 1263.765625 Z M 0 0 " fill-opacity="1" fill-rule="nonzero"/></g></g><g clip-path="url(#d7311993a4)"><g clip-path="url(#d2bb390d9a)"><g clip-path="url(#85fe5ea9cf)"><path fill="#ffffff" d="M 477.441406 180.644531 L 302.390625 482.117188 L 650.996094 482.980469 L 826.046875 181.515625 L 477.441406 180.644531 " fill-opacity="1" fill-rule="nonzero"/></g></g></g><g clip-path="url(#561778f9c3)"><g clip-path="url(#8eadca03be)"><g clip-path="url(#f4fe4a8784)"><path fill="#ffffff" d="M 662.039062 502.21875 L 426.421875 501.632812 L 401.90625 543.847656 L 686.34375 544.554688 L 829.175781 298.574219 L 780.355469 298.457031 L 662.039062 502.21875 " fill-opacity="1" fill-rule="nonzero"/></g></g></g><g clip-path="url(#5fcac2e7fa)"><g clip-path="url(#b5b0690fb4)"><g clip-path="url(#18e1a79345)"><path fill="#ffffff" d="M 698.59375 565.894531 L 462.972656 565.308594 L 438.457031 607.523438 L 722.894531 608.230469 L 865.730469 362.253906 L 816.90625 362.132812 L 698.59375 565.894531 " fill-opacity="1" fill-rule="nonzero"/></g></g></g><g clip-path="url(#3fbec1398a)"><path fill="#ffffff" d="M 940.09375 193.078125 C 940.09375 280.667969 906.714844 363.84375 846.117188 427.253906 C 837.527344 436.226562 829.238281 444.664062 821.410156 452.648438 C 779.210938 495.453125 751.765625 523.203125 740.207031 576.273438 L 460.796875 576.273438 C 451.519531 522.0625 425.746094 497.203125 384.6875 457.515625 C 376.402344 449.53125 367.734375 441.089844 358.609375 431.890625 C 292.160156 364.757812 257.261719 275.800781 260.453125 181.371094 C 266.460938 3.308594 416.316406 -143.964844 594.53125 -146.851562 C 687.136719 -148.222656 773.128906 -113.703125 838.589844 -49.304688 C 904.054688 15.167969 940.09375 101.160156 940.09375 193.078125 Z M 512.648438 715.257812 L 466.269531 715.257812 C 477.523438 778.972656 533.253906 827.554688 600.160156 827.554688 C 667.066406 827.554688 722.796875 778.972656 734.050781 715.257812 Z M 423.082031 -197.792969 C 426.65625 -189.050781 435.097656 -183.804688 443.992188 -183.804688 C 446.882812 -183.804688 449.847656 -184.335938 452.660156 -185.554688 C 464.214844 -190.34375 469.691406 -203.570312 464.902344 -215.128906 L 430.308594 -298.914062 C 425.515625 -310.472656 412.210938 -315.871094 400.730469 -311.15625 C 389.175781 -306.367188 383.699219 -293.136719 388.488281 -281.578125 Z M 747.582031 -185.554688 C 750.394531 -184.414062 753.359375 -183.804688 756.25 -183.804688 C 765.144531 -183.804688 773.585938 -189.050781 777.160156 -197.792969 L 811.828125 -281.578125 C 816.617188 -293.136719 811.144531 -306.441406 799.585938 -311.15625 C 788.03125 -315.945312 774.726562 -310.472656 770.011719 -298.914062 L 735.339844 -215.128906 C 730.550781 -203.570312 736.027344 -190.34375 747.582031 -185.554688 Z M 977.042969 36.914062 C 979.933594 36.914062 982.898438 36.378906 985.710938 35.164062 L 1069.421875 0.492188 C 1080.976562 -4.296875 1086.449219 -17.601562 1081.660156 -29.082031 C 1076.871094 -40.636719 1063.566406 -46.113281 1052.085938 -41.324219 L 968.375 -6.652344 C 956.820312 -1.863281 951.34375 11.441406 956.132812 22.921875 C 959.707031 31.667969 968.148438 36.914062 977.042969 36.914062 Z M 1069.421875 340.199219 L 985.710938 305.527344 C 974.230469 300.738281 960.925781 306.214844 956.132812 317.769531 C 951.34375 329.328125 956.820312 342.632812 968.375 347.34375 L 1052.085938 382.015625 C 1054.898438 383.15625 1057.863281 383.765625 1060.753906 383.765625 C 1069.648438 383.765625 1078.085938 378.519531 1081.660156 369.773438 C 1086.449219 358.292969 1080.976562 344.988281 1069.421875 340.199219 Z M 214.609375 305.527344 L 130.898438 340.199219 C 119.339844 344.988281 113.867188 358.292969 118.65625 369.773438 C 122.230469 378.519531 130.746094 383.765625 139.566406 383.765625 C 142.453125 383.765625 145.421875 383.230469 148.234375 382.015625 L 231.941406 347.347656 C 243.5 342.554688 248.972656 329.25 244.183594 317.769531 C 239.46875 306.214844 226.164062 300.738281 214.609375 305.527344 Z M 231.941406 -6.652344 L 148.234375 -41.324219 C 136.675781 -46.113281 123.371094 -40.636719 118.65625 -29.082031 C 113.867188 -17.523438 119.339844 -4.21875 130.898438 0.492188 L 214.609375 35.164062 C 217.421875 36.304688 220.386719 36.914062 223.277344 36.914062 C 232.171875 36.914062 240.609375 31.667969 244.183594 22.921875 C 249.050781 11.367188 243.5 -1.863281 231.941406 -6.652344 Z M 509.53125 622.578125 L 464.214844 622.578125 L 464.214844 668.957031 L 736.101562 668.957031 L 736.101562 622.578125 Z M 509.53125 622.578125 " fill-opacity="1" fill-rule="nonzero"/></g><g fill="#ffffff" fill-opacity="1"><g transform="translate(288.365901, 989.512802)"><g><path d="M 39.734375 -62.265625 L 47.9375 -62.265625 C 55.601562 -62.265625 61.335938 -63.773438 65.140625 -66.796875 C 68.953125 -69.828125 70.859375 -74.238281 70.859375 -80.03125 C 70.859375 -85.875 69.265625 -90.191406 66.078125 -92.984375 C 62.890625 -95.773438 57.890625 -97.171875 51.078125 -97.171875 L 39.734375 -97.171875 Z M 96.046875 -80.921875 C 96.046875 -68.265625 92.085938 -58.582031 84.171875 -51.875 C 76.265625 -45.175781 65.019531 -41.828125 50.4375 -41.828125 L 39.734375 -41.828125 L 39.734375 0 L 14.796875 0 L 14.796875 -117.59375 L 52.359375 -117.59375 C 66.628906 -117.59375 77.476562 -114.519531 84.90625 -108.375 C 92.332031 -102.238281 96.046875 -93.085938 96.046875 -80.921875 Z M 96.046875 -80.921875 "/></g></g></g><g fill="#ffffff" fill-opacity="1"><g transform="translate(391.809391, 989.512802)"><g><path d="M 82.53125 0 L 14.796875 0 L 14.796875 -117.59375 L 82.53125 -117.59375 L 82.53125 -97.171875 L 39.734375 -97.171875 L 39.734375 -71.34375 L 79.546875 -71.34375 L 79.546875 -50.921875 L 39.734375 -50.921875 L 39.734375 -20.59375 L 82.53125 -20.59375 Z M 82.53125 0 "/></g></g></g><g fill="#ffffff" fill-opacity="1"><g transform="translate(484.071964, 989.512802)"><g><path d="M 119.125 0 L 87.4375 0 L 36.28125 -88.96875 L 35.546875 -88.96875 C 36.566406 -73.25 37.078125 -62.039062 37.078125 -55.34375 L 37.078125 0 L 14.796875 0 L 14.796875 -117.59375 L 46.25 -117.59375 L 97.328125 -29.515625 L 97.890625 -29.515625 C 97.085938 -44.796875 96.6875 -55.601562 96.6875 -61.9375 L 96.6875 -117.59375 L 119.125 -117.59375 Z M 119.125 0 "/></g></g></g><g fill="#ffffff" fill-opacity="1"><g transform="translate(618.00151, 989.512802)"><g><path d="M 84.21875 -32.65625 C 84.21875 -22.039062 80.394531 -13.675781 72.75 -7.5625 C 65.113281 -1.445312 54.484375 1.609375 40.859375 1.609375 C 28.316406 1.609375 17.21875 -0.75 7.5625 -5.46875 L 7.5625 -28.640625 C 15.5 -25.097656 22.210938 -22.601562 27.703125 -21.15625 C 33.203125 -19.707031 38.234375 -18.984375 42.796875 -18.984375 C 48.265625 -18.984375 52.457031 -20.023438 55.375 -22.109375 C 58.300781 -24.203125 59.765625 -27.316406 59.765625 -31.453125 C 59.765625 -33.753906 59.117188 -35.800781 57.828125 -37.59375 C 56.546875 -39.394531 54.65625 -41.125 52.15625 -42.78125 C 49.664062 -44.445312 44.585938 -47.101562 36.921875 -50.75 C 29.734375 -54.132812 24.34375 -57.378906 20.75 -60.484375 C 17.15625 -63.597656 14.285156 -67.21875 12.140625 -71.34375 C 9.992188 -75.476562 8.921875 -80.304688 8.921875 -85.828125 C 8.921875 -96.234375 12.445312 -104.410156 19.5 -110.359375 C 26.550781 -116.304688 36.300781 -119.28125 48.75 -119.28125 C 54.863281 -119.28125 60.691406 -118.554688 66.234375 -117.109375 C 71.785156 -115.660156 77.59375 -113.625 83.65625 -111 L 75.609375 -91.625 C 69.335938 -94.195312 64.148438 -95.988281 60.046875 -97 C 55.941406 -98.019531 51.90625 -98.53125 47.9375 -98.53125 C 43.21875 -98.53125 39.597656 -97.429688 37.078125 -95.234375 C 34.554688 -93.035156 33.296875 -90.164062 33.296875 -86.625 C 33.296875 -84.425781 33.804688 -82.507812 34.828125 -80.875 C 35.847656 -79.238281 37.46875 -77.65625 39.6875 -76.125 C 41.914062 -74.601562 47.1875 -71.859375 55.5 -67.890625 C 66.488281 -62.628906 74.019531 -57.359375 78.09375 -52.078125 C 82.175781 -46.796875 84.21875 -40.320312 84.21875 -32.65625 Z M 84.21875 -32.65625 "/></g></g></g><g fill="#ffffff" fill-opacity="1"><g transform="translate(708.735769, 989.512802)"><g><path d="M 11.828125 -113.171875 C 11.828125 -121.160156 16.273438 -125.15625 25.171875 -125.15625 C 34.078125 -125.15625 38.53125 -121.160156 38.53125 -113.171875 C 38.53125 -109.367188 37.414062 -106.40625 35.1875 -104.28125 C 32.96875 -102.164062 29.628906 -101.109375 25.171875 -101.109375 C 16.273438 -101.109375 11.828125 -105.128906 11.828125 -113.171875 Z M 37.40625 0 L 12.875 0 L 12.875 -89.921875 L 37.40625 -89.921875 Z M 37.40625 0 "/></g></g></g><g fill="#ffffff" fill-opacity="1"><g transform="translate(759.009616, 989.512802)"><g><path d="M 91.140625 -89.921875 L 91.140625 -77.453125 L 77.0625 -73.84375 C 79.632812 -69.820312 80.921875 -65.316406 80.921875 -60.328125 C 80.921875 -50.671875 77.554688 -43.148438 70.828125 -37.765625 C 64.097656 -32.378906 54.753906 -29.6875 42.796875 -29.6875 L 38.375 -29.921875 L 34.75 -30.328125 C 32.226562 -28.390625 30.96875 -26.242188 30.96875 -23.890625 C 30.96875 -20.347656 35.472656 -18.578125 44.484375 -18.578125 L 59.765625 -18.578125 C 69.628906 -18.578125 77.148438 -16.457031 82.328125 -12.21875 C 87.503906 -7.988281 90.09375 -1.769531 90.09375 6.4375 C 90.09375 16.945312 85.707031 25.097656 76.9375 30.890625 C 68.164062 36.679688 55.578125 39.578125 39.171875 39.578125 C 26.617188 39.578125 17.03125 37.390625 10.40625 33.015625 C 3.789062 28.648438 0.484375 22.523438 0.484375 14.640625 C 0.484375 9.222656 2.171875 4.691406 5.546875 1.046875 C 8.929688 -2.597656 13.894531 -5.195312 20.4375 -6.75 C 17.914062 -7.820312 15.710938 -9.578125 13.828125 -12.015625 C 11.953125 -14.460938 11.015625 -17.050781 11.015625 -19.78125 C 11.015625 -23.21875 12.003906 -26.070312 13.984375 -28.34375 C 15.972656 -30.625 18.847656 -32.867188 22.609375 -35.078125 C 17.890625 -37.109375 14.144531 -40.375 11.375 -44.875 C 8.613281 -49.382812 7.234375 -54.695312 7.234375 -60.8125 C 7.234375 -70.625 10.425781 -78.210938 16.8125 -83.578125 C 23.195312 -88.941406 32.3125 -91.625 44.15625 -91.625 C 46.675781 -91.625 49.664062 -91.394531 53.125 -90.9375 C 56.582031 -90.476562 58.796875 -90.140625 59.765625 -89.921875 Z M 21.71875 12.703125 C 21.71875 16.085938 23.335938 18.742188 26.578125 20.671875 C 29.828125 22.597656 34.375 23.5625 40.21875 23.5625 C 49.007812 23.5625 55.898438 22.351562 60.890625 19.9375 C 65.878906 17.53125 68.375 14.234375 68.375 10.046875 C 68.375 6.671875 66.894531 4.335938 63.9375 3.046875 C 60.988281 1.765625 56.429688 1.125 50.265625 1.125 L 37.5625 1.125 C 33.0625 1.125 29.296875 2.179688 26.265625 4.296875 C 23.234375 6.421875 21.71875 9.222656 21.71875 12.703125 Z M 30.640625 -60.484375 C 30.640625 -55.609375 31.753906 -51.75 33.984375 -48.90625 C 36.210938 -46.0625 39.601562 -44.640625 44.15625 -44.640625 C 48.769531 -44.640625 52.148438 -46.0625 54.296875 -48.90625 C 56.441406 -51.75 57.515625 -55.609375 57.515625 -60.484375 C 57.515625 -71.316406 53.0625 -76.734375 44.15625 -76.734375 C 35.144531 -76.734375 30.640625 -71.316406 30.640625 -60.484375 Z M 30.640625 -60.484375 "/></g></g></g><g fill="#ffffff" fill-opacity="1"><g transform="translate(852.076571, 989.512802)"><g><path d="M 95.875 0 L 71.34375 0 L 71.34375 -52.53125 C 71.34375 -65.5 66.519531 -71.984375 56.875 -71.984375 C 50.007812 -71.984375 45.046875 -69.648438 41.984375 -64.984375 C 38.929688 -60.328125 37.40625 -52.769531 37.40625 -42.3125 L 37.40625 0 L 12.875 0 L 12.875 -125.15625 L 37.40625 -125.15625 L 37.40625 -99.65625 C 37.40625 -97.675781 37.21875 -93.015625 36.84375 -85.671875 L 36.28125 -78.421875 L 37.5625 -78.421875 C 43.03125 -87.222656 51.71875 -91.625 63.625 -91.625 C 74.1875 -91.625 82.203125 -88.78125 87.671875 -83.09375 C 93.140625 -77.40625 95.875 -69.253906 95.875 -58.640625 Z M 95.875 0 "/></g></g></g><g fill="#ffffff" fill-opacity="1"><g transform="translate(960.346374, 989.512802)"><g><path d="M 50.75 -17.9375 C 55.039062 -17.9375 60.191406 -18.875 66.203125 -20.75 L 66.203125 -2.5 C 60.085938 0.238281 52.578125 1.609375 43.671875 1.609375 C 33.859375 1.609375 26.710938 -0.867188 22.234375 -5.828125 C 17.765625 -10.785156 15.53125 -18.226562 15.53125 -28.15625 L 15.53125 -71.515625 L 3.78125 -71.515625 L 3.78125 -81.890625 L 17.296875 -90.09375 L 24.375 -109.078125 L 40.0625 -109.078125 L 40.0625 -89.921875 L 65.234375 -89.921875 L 65.234375 -71.515625 L 40.0625 -71.515625 L 40.0625 -28.15625 C 40.0625 -24.664062 41.035156 -22.085938 42.984375 -20.421875 C 44.941406 -18.765625 47.53125 -17.9375 50.75 -17.9375 Z M 50.75 -17.9375 "/></g></g></g><g clip-path="url(#b3414228dc)"><g clip-path="url(#4aeafb420b)"><g clip-path="url(#6e1134da7e)"><path fill="#f7f40f" d="M 477.441406 180.644531 L 302.390625 482.117188 L 650.996094 482.980469 L 826.046875 181.515625 L 477.441406 180.644531 " fill-opacity="1" fill-rule="nonzero"/></g></g></g><g clip-path="url(#e79659f223)"><g clip-path="url(#3cecbb2cc8)"><g clip-path="url(#296d821f1a)"><path fill="#f7f40f" d="M 662.039062 502.21875 L 426.421875 501.632812 L 401.90625 543.847656 L 686.34375 544.554688 L 829.175781 298.574219 L 780.355469 298.457031 L 662.039062 502.21875 " fill-opacity="1" fill-rule="nonzero"/></g></g></g><g clip-path="url(#638393bfd4)"><g clip-path="url(#7fcf625650)"><g clip-path="url(#d0021fa457)"><path fill="#f7f40f" d="M 698.59375 565.894531 L 462.972656 565.308594 L 438.457031 607.523438 L 722.894531 608.230469 L 865.730469 362.253906 L 816.90625 362.132812 L 698.59375 565.894531 " fill-opacity="1" fill-rule="nonzero"/></g></g></g></svg>