<svg xmlns="http://www.w3.org/2000/svg" xmlns:xlink="http://www.w3.org/1999/xlink" width="1920" zoomAndPan="magnify" viewBox="0 0 1440 809.999993" height="1080" preserveAspectRatio="xMidYMid meet" version="1.0"><defs><g/><clipPath id="6b8de315be"><path d="M 457 6 L 967 6 L 967 807 L 457 807 Z M 457 6 " clip-rule="nonzero"/></clipPath><clipPath id="a22009d346"><path d="M 440.925781 65.519531 L 853.382812 -5.191406 L 982.480469 747.855469 L 570.023438 818.5625 Z M 440.925781 65.519531 " clip-rule="nonzero"/></clipPath><clipPath id="0f3431d672"><path d="M 440.925781 65.519531 L 853.382812 -5.191406 L 982.480469 747.855469 L 570.023438 818.5625 Z M 440.925781 65.519531 " clip-rule="nonzero"/></clipPath><clipPath id="3db7a0c54d"><path d="M 444.863281 64.84375 L 850.550781 -4.707031 L 979.625 748.183594 L 573.9375 817.734375 Z M 444.863281 64.84375 " clip-rule="nonzero"/></clipPath><clipPath id="bcded8481c"><path d="M 468 220 L 482 220 L 482 264 L 468 264 Z M 468 220 " clip-rule="nonzero"/></clipPath><clipPath id="1c802c9a81"><path d="M 440.925781 65.519531 L 853.382812 -5.191406 L 982.480469 747.855469 L 570.023438 818.5625 Z M 440.925781 65.519531 " clip-rule="nonzero"/></clipPath><clipPath id="298fedc7ad"><path d="M 440.925781 65.519531 L 853.382812 -5.191406 L 982.480469 747.855469 L 570.023438 818.5625 Z M 440.925781 65.519531 " clip-rule="nonzero"/></clipPath><clipPath id="a1f59e2f34"><path d="M 479 286 L 493 286 L 493 330 L 479 330 Z M 479 286 " clip-rule="nonzero"/></clipPath><clipPath id="9bb0cf1df9"><path d="M 440.925781 65.519531 L 853.382812 -5.191406 L 982.480469 747.855469 L 570.023438 818.5625 Z M 440.925781 65.519531 " clip-rule="nonzero"/></clipPath><clipPath id="0b87bea945"><path d="M 440.925781 65.519531 L 853.382812 -5.191406 L 982.480469 747.855469 L 570.023438 818.5625 Z M 440.925781 65.519531 " clip-rule="nonzero"/></clipPath><clipPath id="2561fb3baa"><path d="M 459 165 L 469 165 L 469 192 L 459 192 Z M 459 165 " clip-rule="nonzero"/></clipPath><clipPath id="2aba14ecb0"><path d="M 440.925781 65.519531 L 853.382812 -5.191406 L 982.480469 747.855469 L 570.023438 818.5625 Z M 440.925781 65.519531 " clip-rule="nonzero"/></clipPath><clipPath id="39998315ce"><path d="M 440.925781 65.519531 L 853.382812 -5.191406 L 982.480469 747.855469 L 570.023438 818.5625 Z M 440.925781 65.519531 " clip-rule="nonzero"/></clipPath><clipPath id="8077bf19dd"><path d="M 878 178 L 896 178 L 896 246 L 878 246 Z M 878 178 " clip-rule="nonzero"/></clipPath><clipPath id="d19a5ca787"><path d="M 440.925781 65.519531 L 853.382812 -5.191406 L 982.480469 747.855469 L 570.023438 818.5625 Z M 440.925781 65.519531 " clip-rule="nonzero"/></clipPath><clipPath id="cf4c5b5a5c"><path d="M 440.925781 65.519531 L 853.382812 -5.191406 L 982.480469 747.855469 L 570.023438 818.5625 Z M 440.925781 65.519531 " clip-rule="nonzero"/></clipPath><clipPath id="839f6aa10c"><path d="M 877.5625 175.832031 L 884.257812 174.683594 L 896.726562 247.398438 L 890.027344 248.546875 Z M 877.5625 175.832031 " clip-rule="nonzero"/></clipPath><clipPath id="0eec121fd1"><path d="M 466 15 L 957 15 L 957 798 L 466 798 Z M 466 15 " clip-rule="nonzero"/></clipPath><clipPath id="f3591f2b7a"><path d="M 440.925781 65.519531 L 853.382812 -5.191406 L 982.480469 747.855469 L 570.023438 818.5625 Z M 440.925781 65.519531 " clip-rule="nonzero"/></clipPath><clipPath id="e0bb44a64b"><path d="M 440.925781 65.519531 L 853.382812 -5.191406 L 982.480469 747.855469 L 570.023438 818.5625 Z M 440.925781 65.519531 " clip-rule="nonzero"/></clipPath><clipPath id="52b6f28bd4"><path d="M 480 27 L 944 27 L 944 786 L 480 786 Z M 480 27 " clip-rule="nonzero"/></clipPath><clipPath id="4c077ac29d"><path d="M 440.925781 65.519531 L 853.382812 -5.191406 L 982.480469 747.855469 L 570.023438 818.5625 Z M 440.925781 65.519531 " clip-rule="nonzero"/></clipPath><clipPath id="57ffef46e0"><path d="M 440.925781 65.519531 L 853.382812 -5.191406 L 982.480469 747.855469 L 570.023438 818.5625 Z M 440.925781 65.519531 " clip-rule="nonzero"/></clipPath><clipPath id="5b95a81274"><path d="M 534 139 L 815 139 L 815 224 L 534 224 Z M 534 139 " clip-rule="nonzero"/></clipPath><clipPath id="e6cc0dfdaf"><path d="M 529.621094 182.519531 L 813.222656 135.726562 L 820.617188 180.5625 L 537.015625 227.355469 Z M 529.621094 182.519531 " clip-rule="nonzero"/></clipPath><clipPath id="32febaf832"><path d="M 529.621094 182.519531 L 813.222656 135.726562 L 820.617188 180.5625 L 537.015625 227.355469 Z M 529.621094 182.519531 " clip-rule="nonzero"/></clipPath><clipPath id="f7f13b9677"><path d="M 775 150 L 804 150 L 804 174 L 775 174 Z M 775 150 " clip-rule="nonzero"/></clipPath><clipPath id="17bb2242a9"><path d="M 529.621094 182.519531 L 813.222656 135.726562 L 820.617188 180.5625 L 537.015625 227.355469 Z M 529.621094 182.519531 " clip-rule="nonzero"/></clipPath><clipPath id="cb14909fe3"><path d="M 529.621094 182.519531 L 813.222656 135.726562 L 820.617188 180.5625 L 537.015625 227.355469 Z M 529.621094 182.519531 " clip-rule="nonzero"/></clipPath><clipPath id="9f57646403"><path d="M 665 431 L 774 431 L 774 472 L 665 472 Z M 665 431 " clip-rule="nonzero"/></clipPath><clipPath id="ee37a420c9"><path d="M 575.769531 370.855469 L 829.191406 329.390625 L 847.621094 442.023438 L 594.199219 483.488281 Z M 575.769531 370.855469 " clip-rule="nonzero"/></clipPath><clipPath id="f77a2be9cd"><path d="M 575.769531 370.855469 L 829.191406 329.390625 L 847.621094 442.023438 L 594.199219 483.488281 Z M 575.769531 370.855469 " clip-rule="nonzero"/></clipPath><clipPath id="132fec7093"><path d="M 745 337 L 844 337 L 844 447 L 745 447 Z M 745 337 " clip-rule="nonzero"/></clipPath><clipPath id="e8ae9c8913"><path d="M 575.769531 370.855469 L 829.191406 329.390625 L 847.621094 442.023438 L 594.199219 483.488281 Z M 575.769531 370.855469 " clip-rule="nonzero"/></clipPath><clipPath id="5d03030c33"><path d="M 575.769531 370.855469 L 829.191406 329.390625 L 847.621094 442.023438 L 594.199219 483.488281 Z M 575.769531 370.855469 " clip-rule="nonzero"/></clipPath><clipPath id="01cfd53805"><path d="M 591 362 L 690 362 L 690 472 L 591 472 Z M 591 362 " clip-rule="nonzero"/></clipPath><clipPath id="ba383e8891"><path d="M 575.769531 370.855469 L 829.191406 329.390625 L 847.621094 442.023438 L 594.199219 483.488281 Z M 575.769531 370.855469 " clip-rule="nonzero"/></clipPath><clipPath id="f213abc4d7"><path d="M 575.769531 370.855469 L 829.191406 329.390625 L 847.621094 442.023438 L 594.199219 483.488281 Z M 575.769531 370.855469 " clip-rule="nonzero"/></clipPath><clipPath id="caf954bd91"><path d="M 665 349 L 771 349 L 771 452 L 665 452 Z M 665 349 " clip-rule="nonzero"/></clipPath><clipPath id="5e725949b6"><path d="M 575.769531 370.855469 L 829.191406 329.390625 L 847.621094 442.023438 L 594.199219 483.488281 Z M 575.769531 370.855469 " clip-rule="nonzero"/></clipPath><clipPath id="8f28950770"><path d="M 575.769531 370.855469 L 829.191406 329.390625 L 847.621094 442.023438 L 594.199219 483.488281 Z M 575.769531 370.855469 " clip-rule="nonzero"/></clipPath></defs><g clip-path="url(#6b8de315be)"><g clip-path="url(#a22009d346)"><g clip-path="url(#0f3431d672)"><g clip-path="url(#3db7a0c54d)"><path fill="#0a3d83" d="M 955.753906 683.46875 C 961.195312 715.191406 939.800781 745.4375 908.0625 750.878906 L 641.367188 796.601562 C 609.628906 802.042969 579.382812 780.648438 573.945312 748.925781 L 467.792969 129.734375 C 462.355469 98.011719 483.746094 67.765625 515.484375 62.324219 L 782.179688 16.601562 C 813.921875 11.160156 844.164062 32.554688 849.605469 64.277344 Z M 780.585938 7.304688 L 513.890625 53.023438 C 477.023438 59.34375 452.175781 94.476562 458.492188 131.328125 L 564.644531 750.519531 C 570.960938 787.371094 606.09375 812.21875 642.960938 805.898438 L 909.65625 760.179688 C 946.523438 753.859375 971.371094 718.726562 965.054688 681.875 L 858.902344 62.683594 C 852.585938 25.832031 817.453125 0.984375 780.585938 7.304688 " fill-opacity="1" fill-rule="nonzero"/></g></g></g></g><g clip-path="url(#bcded8481c)"><g clip-path="url(#1c802c9a81)"><g clip-path="url(#298fedc7ad)"><path fill="#464bd0" d="M 473.8125 220.6875 L 481.210938 263.832031 C 477.90625 264.398438 474.753906 262.167969 474.1875 258.863281 L 468.84375 227.707031 C 468.277344 224.390625 470.507812 221.253906 473.8125 220.6875 " fill-opacity="1" fill-rule="nonzero"/></g></g></g><g clip-path="url(#a1f59e2f34)"><g clip-path="url(#9bb0cf1df9)"><g clip-path="url(#0b87bea945)"><path fill="#464bd0" d="M 485.011719 286.003906 L 492.40625 329.132812 C 489.101562 329.699219 485.949219 327.484375 485.382812 324.183594 L 480.042969 293.027344 C 479.472656 289.707031 481.707031 286.570312 485.011719 286.003906 " fill-opacity="1" fill-rule="nonzero"/></g></g></g><g clip-path="url(#2561fb3baa)"><g clip-path="url(#2aba14ecb0)"><g clip-path="url(#39998315ce)"><path fill="#464bd0" d="M 464.410156 165.847656 L 468.777344 191.324219 C 465.476562 191.890625 462.324219 189.660156 461.757812 186.355469 L 459.445312 172.871094 C 458.878906 169.566406 461.105469 166.414062 464.410156 165.847656 " fill-opacity="1" fill-rule="nonzero"/></g></g></g><g clip-path="url(#8077bf19dd)"><g clip-path="url(#d19a5ca787)"><g clip-path="url(#cf4c5b5a5c)"><g clip-path="url(#839f6aa10c)"><path fill="#464bd0" d="M 885.875 184.023438 L 895.144531 238.082031 C 895.710938 241.402344 893.480469 244.539062 890.175781 245.105469 L 878.855469 179.070312 C 882.160156 178.503906 885.308594 180.71875 885.875 184.023438 " fill-opacity="1" fill-rule="nonzero"/></g></g></g></g><g clip-path="url(#0eec121fd1)"><g clip-path="url(#f3591f2b7a)"><g clip-path="url(#e0bb44a64b)"><path fill="#000000" d="M 942.824219 688.023438 C 943.148438 689.921875 943.339844 691.828125 943.429688 693.707031 C 944.335938 715.605469 928.859375 735.292969 906.6875 739.09375 L 638.753906 785.027344 C 616.566406 788.832031 595.414062 775.421875 588.976562 754.472656 C 588.421875 752.675781 587.980469 750.8125 587.652344 748.914062 L 480.726562 125.195312 C 476.59375 101.09375 492.773438 78.238281 516.875 74.105469 L 568.601562 65.238281 C 570.515625 64.910156 572.304688 66.1875 572.628906 68.085938 C 573.558594 73.511719 576.617188 78.066406 580.785156 81.015625 C 584.953125 83.949219 590.265625 85.316406 595.691406 84.386719 L 713.902344 64.121094 C 724.769531 62.257812 732.066406 51.941406 730.203125 41.074219 C 730.039062 40.117188 730.28125 39.195312 730.804688 38.460938 C 731.324219 37.742188 732.113281 37.207031 733.054688 37.042969 L 784.8125 28.171875 C 808.820312 24.054688 831.628906 40.136719 835.859375 64.09375 Z M 782.179688 16.601562 L 515.484375 62.324219 C 497.726562 65.367188 483.203125 76.167969 474.808594 90.675781 C 468.207031 102.085938 465.394531 115.757812 467.792969 129.734375 L 573.945312 748.925781 C 576.335938 762.886719 583.546875 774.855469 593.566406 783.402344 C 606.3125 794.285156 623.605469 799.644531 641.367188 796.601562 L 908.0625 750.878906 C 939.785156 745.441406 961.179688 715.195312 955.742188 683.472656 L 849.589844 64.28125 C 844.148438 32.558594 813.90625 11.164062 782.179688 16.601562 " fill-opacity="1" fill-rule="nonzero"/></g></g></g><g clip-path="url(#52b6f28bd4)"><g clip-path="url(#4c077ac29d)"><g clip-path="url(#57ffef46e0)"><path fill="#fdfdfd" d="M 835.859375 64.09375 L 942.824219 688.023438 C 943.148438 689.921875 943.339844 691.828125 943.429688 693.707031 C 944.335938 715.605469 928.859375 735.292969 906.6875 739.09375 L 638.753906 785.027344 C 616.566406 788.832031 595.414062 775.421875 588.976562 754.472656 C 588.421875 752.675781 587.980469 750.8125 587.652344 748.914062 L 480.726562 125.195312 C 476.59375 101.09375 492.773438 78.238281 516.875 74.105469 L 568.601562 65.238281 C 570.515625 64.910156 572.304688 66.1875 572.628906 68.085938 C 573.558594 73.511719 576.617188 78.066406 580.785156 81.015625 C 584.953125 83.949219 590.265625 85.316406 595.691406 84.386719 L 713.902344 64.121094 C 724.769531 62.257812 732.066406 51.941406 730.203125 41.074219 C 730.039062 40.117188 730.28125 39.195312 730.804688 38.460938 C 731.324219 37.742188 732.113281 37.207031 733.054688 37.042969 L 784.8125 28.171875 C 808.820312 24.054688 831.628906 40.136719 835.859375 64.09375 " fill-opacity="1" fill-rule="nonzero"/></g></g></g><g clip-path="url(#5b95a81274)"><g clip-path="url(#e6cc0dfdaf)"><g clip-path="url(#32febaf832)"><path fill="#0a3d83" d="M 534.160156 202.261719 C 534.132812 201.757812 534.125 201.246094 534.132812 200.734375 C 534.324219 189.902344 542.296875 180.871094 552.796875 178.726562 C 553.214844 178.640625 553.640625 178.570312 554.058594 178.5 C 586.65625 173.121094 754.742188 145.359375 787.347656 140.027344 C 797.328125 138.394531 805.347656 141.722656 811.050781 150.109375 C 815.945312 157.308594 815.78125 167.164062 811.164062 174.449219 C 807.773438 179.796875 802.1875 183.410156 796.019531 184.691406 C 795.597656 184.777344 795.175781 184.855469 794.757812 184.921875 C 762.15625 190.300781 594.078125 218.066406 561.464844 223.394531 C 555.222656 224.421875 548.792969 223.445312 543.644531 219.601562 C 538.164062 215.511719 534.523438 209.09375 534.152344 202.261719 Z M 738.984375 151.332031 C 722.390625 154.070312 570.3125 179.101562 553.730469 181.917969 C 540.816406 184.109375 533.734375 197.761719 539.300781 209.492188 C 543.085938 217.472656 551.484375 221.710938 560.628906 220.203125 C 593.433594 214.800781 761.71875 187.023438 794.53125 181.609375 C 795.046875 181.523438 795.566406 181.429688 796.078125 181.328125 C 807.40625 179.046875 814.335938 166.574219 810.28125 155.765625 C 806.882812 146.703125 798.191406 141.597656 788.617188 143.152344 C 772.066406 145.839844 755.523438 148.597656 738.980469 151.328125 Z M 738.984375 151.332031 " fill-opacity="1" fill-rule="nonzero"/></g></g></g><g clip-path="url(#f7f13b9677)"><g clip-path="url(#17bb2242a9)"><g clip-path="url(#cb14909fe3)"><path fill="#0a3d83" d="M 796.980469 166.8125 C 798.753906 168.070312 800.503906 169.292969 802.226562 170.542969 C 803.40625 171.398438 803.722656 172.355469 803.039062 173.160156 C 802.148438 174.207031 801.210938 173.84375 800.277344 173.152344 C 798.9375 172.167969 797.527344 171.269531 796.242188 170.21875 C 795.378906 169.515625 794.84375 169.574219 793.972656 170.296875 C 789.941406 173.648438 784.125 173.71875 779.964844 170.585938 C 775.8125 167.453125 774.308594 161.824219 776.371094 157.050781 C 778.78125 151.457031 785.203125 148.738281 790.878906 150.90625 C 796.640625 153.101562 799.589844 159.445312 797.554688 165.257812 C 797.386719 165.746094 797.199219 166.222656 796.988281 166.820312 Z M 778.808594 162.753906 C 779.402344 166.480469 782.453125 169.335938 786.128906 169.605469 C 788.050781 169.75 789.960938 169.453125 791.351562 168.160156 C 792.632812 166.964844 793.871094 165.488281 794.519531 163.886719 C 795.773438 160.78125 794.496094 157.21875 791.816406 155.117188 C 789.21875 153.082031 785.585938 152.847656 782.71875 154.527344 C 779.828125 156.222656 778.296875 159.457031 778.816406 162.746094 Z M 778.808594 162.753906 " fill-opacity="1" fill-rule="nonzero"/></g></g></g><g clip-path="url(#9f57646403)"><g clip-path="url(#ee37a420c9)"><g clip-path="url(#f77a2be9cd)"><path fill="#f4c515" d="M 759.363281 432.90625 C 760.113281 434.421875 760.90625 436.296875 761.675781 438.542969 C 762.703125 441.558594 763.316406 444.175781 763.671875 446.203125 C 745.035156 449.246094 693.816406 457.617188 675.214844 460.65625 C 674.644531 456.777344 674.449219 451.257812 675.0625 446.699219 L 665.203125 448.3125 C 664.375 459.203125 666.601562 471.863281 670.179688 471.277344 C 675.789062 470.359375 766.242188 455.578125 771.851562 454.664062 C 772.5 454.558594 772.964844 454.054688 773.273438 453.246094 C 774.664062 449.570312 772.742188 439.539062 769.253906 431.289062 L 759.363281 432.90625 " fill-opacity="1" fill-rule="nonzero"/></g></g></g><g clip-path="url(#132fec7093)"><g clip-path="url(#e8ae9c8913)"><g clip-path="url(#5d03030c33)"><path fill="#0a3d83" d="M 753.707031 358.632812 C 751.707031 363.910156 751.03125 369.769531 752.007812 375.738281 C 754.121094 388.707031 763.476562 398.691406 775.265625 402.234375 C 769.652344 408.226562 755.757812 408.191406 750.113281 412.890625 C 749.085938 413.746094 748.257812 415.113281 747.617188 416.816406 C 743.972656 426.449219 746.097656 446.839844 750.378906 446.140625 C 755.40625 445.320312 836.566406 432.058594 841.601562 431.234375 C 842.183594 431.140625 842.601562 430.691406 842.875 429.964844 C 844.988281 424.382812 838.59375 402.476562 831.269531 399.628906 C 824.421875 396.972656 811.261719 401.429688 804.03125 397.535156 C 809.457031 393.695312 813.609375 388.300781 815.949219 382.113281 C 817.945312 376.835938 818.621094 370.980469 817.648438 365.011719 C 814.6875 346.882812 797.59375 334.589844 779.464844 337.554688 C 767.304688 339.539062 757.769531 347.882812 753.707031 358.632812 Z M 761.816406 361.703125 C 764.921875 353.5 772.21875 347.527344 780.863281 346.113281 C 794.242188 343.929688 806.898438 353.035156 809.089844 366.410156 C 809.785156 370.671875 809.351562 375.042969 807.835938 379.042969 C 806.089844 383.664062 803.039062 387.609375 799.019531 390.457031 C 797.585938 391.46875 796.519531 392.875 795.917969 394.46875 C 795.488281 395.597656 795.296875 396.820312 795.371094 398.066406 C 795.558594 401.0625 797.273438 403.753906 799.921875 405.175781 C 806.015625 408.457031 813.242188 408.015625 819.613281 407.628906 C 822.257812 407.46875 826.15625 407.226562 827.789062 407.617188 C 828.671875 408.484375 830.664062 411.476562 832.46875 416.773438 C 833.390625 419.476562 833.945312 421.824219 834.261719 423.644531 C 817.542969 426.375 771.582031 433.886719 754.894531 436.609375 C 754.183594 431.792969 754.117188 424.148438 755.730469 419.886719 C 755.820312 419.644531 755.898438 419.46875 755.960938 419.351562 C 757.394531 418.464844 761.152344 417.449219 763.707031 416.761719 C 769.871094 415.101562 776.859375 413.21875 781.597656 408.171875 C 782.382812 407.328125 782.984375 406.351562 783.382812 405.304688 C 784.015625 403.628906 784.125 401.769531 783.644531 399.984375 C 782.863281 397.082031 780.640625 394.792969 777.765625 393.925781 C 768.683594 391.195312 762.09375 383.691406 760.566406 374.339844 C 759.867188 370.078125 760.304688 365.710938 761.816406 361.703125 " fill-opacity="1" fill-rule="nonzero"/></g></g></g><g clip-path="url(#01cfd53805)"><g clip-path="url(#ba383e8891)"><g clip-path="url(#f213abc4d7)"><path fill="#0a3d83" d="M 599.929688 383.796875 C 597.933594 389.074219 597.253906 394.933594 598.230469 400.902344 C 600.347656 413.867188 609.703125 423.851562 621.492188 427.398438 C 615.875 433.386719 601.984375 433.355469 596.335938 438.050781 C 595.3125 438.90625 594.484375 440.273438 593.84375 441.980469 C 590.199219 451.609375 592.324219 472 596.605469 471.300781 C 601.632812 470.480469 682.792969 457.21875 687.828125 456.394531 C 688.40625 456.300781 688.828125 455.851562 689.101562 455.125 C 691.210938 449.542969 684.816406 427.636719 677.496094 424.792969 C 670.644531 422.136719 657.484375 426.589844 650.257812 422.695312 C 655.679688 418.855469 659.835938 413.464844 662.175781 407.277344 C 664.171875 401.996094 664.847656 396.140625 663.875 390.171875 C 660.914062 372.046875 643.816406 359.75 625.691406 362.714844 C 613.53125 364.703125 603.996094 373.042969 599.929688 383.796875 Z M 608.042969 386.863281 C 611.144531 378.664062 618.445312 372.6875 627.089844 371.273438 C 640.464844 369.089844 653.125 378.195312 655.3125 391.570312 C 656.011719 395.832031 655.578125 400.203125 654.0625 404.207031 C 652.316406 408.824219 649.269531 412.769531 645.246094 415.617188 C 643.808594 416.632812 642.746094 418.035156 642.144531 419.628906 C 641.714844 420.757812 641.519531 421.980469 641.597656 423.226562 C 641.78125 426.226562 643.5 428.914062 646.144531 430.335938 C 652.242188 433.617188 659.464844 433.175781 665.839844 432.789062 C 668.484375 432.628906 672.378906 432.390625 674.015625 432.78125 C 674.898438 433.644531 676.890625 436.636719 678.695312 441.933594 C 679.613281 444.636719 680.171875 446.984375 680.488281 448.804688 C 663.765625 451.535156 617.808594 459.046875 601.117188 461.773438 C 600.40625 456.953125 600.34375 449.3125 601.953125 445.046875 C 602.046875 444.808594 602.125 444.628906 602.183594 444.511719 C 603.617188 443.625 607.378906 442.609375 609.929688 441.921875 C 616.097656 440.265625 623.085938 438.382812 627.820312 433.332031 C 628.609375 432.488281 629.210938 431.511719 629.605469 430.464844 C 630.242188 428.789062 630.351562 426.929688 629.871094 425.144531 C 629.089844 422.246094 626.867188 419.957031 623.992188 419.089844 C 614.910156 416.359375 608.320312 408.851562 606.789062 399.5 C 606.09375 395.242188 606.53125 390.871094 608.042969 386.863281 " fill-opacity="1" fill-rule="nonzero"/></g></g></g><g clip-path="url(#caf954bd91)"><g clip-path="url(#5e725949b6)"><g clip-path="url(#8f28950770)"><path fill="#f4c515" d="M 674.789062 449.492188 C 674.972656 446.675781 675.390625 444.011719 676.148438 442.015625 C 676.246094 441.746094 676.339844 441.550781 676.402344 441.417969 C 678.003906 440.429688 682.191406 439.300781 685.039062 438.535156 C 691.910156 436.683594 699.695312 434.585938 704.976562 428.957031 C 705.855469 428.019531 706.523438 426.929688 706.964844 425.765625 C 707.671875 423.898438 707.792969 421.820312 707.261719 419.832031 C 706.386719 416.601562 703.910156 414.046875 700.707031 413.085938 C 690.585938 410.039062 683.238281 401.671875 681.535156 391.25 C 680.761719 386.503906 681.242188 381.636719 682.933594 377.167969 C 686.390625 368.027344 694.523438 361.367188 704.160156 359.792969 C 719.066406 357.359375 733.175781 367.507812 735.617188 382.417969 C 736.394531 387.164062 735.910156 392.03125 734.222656 396.496094 C 732.273438 401.640625 728.878906 406.039062 724.394531 409.214844 C 722.796875 410.34375 721.609375 411.910156 720.9375 413.683594 C 720.460938 414.945312 720.246094 416.308594 720.332031 417.695312 C 720.535156 421.035156 722.453125 424.03125 725.398438 425.617188 C 732.191406 429.277344 740.242188 428.785156 747.351562 428.351562 C 750.292969 428.171875 754.636719 427.90625 756.460938 428.339844 C 757.253906 429.125 758.867188 431.460938 760.515625 435.464844 L 770.273438 433.867188 C 767.769531 427.097656 764.167969 420.929688 760.339844 419.441406 C 752.707031 416.480469 738.039062 421.441406 729.980469 417.105469 C 736.027344 412.824219 740.652344 406.816406 743.261719 399.917969 C 745.488281 394.035156 746.246094 387.507812 745.160156 380.855469 C 741.859375 360.652344 722.804688 346.949219 702.601562 350.25 C 689.046875 352.464844 678.425781 361.765625 673.890625 373.75 C 671.664062 379.632812 670.90625 386.160156 671.996094 392.808594 C 674.355469 407.265625 684.78125 418.390625 697.921875 422.34375 C 691.660156 429.019531 676.179688 428.980469 669.882812 434.21875 C 668.742188 435.175781 667.820312 436.695312 667.101562 438.59375 C 665.835938 441.945312 665.195312 446.46875 665.058594 451.082031 L 674.789062 449.492188 " fill-opacity="1" fill-rule="nonzero"/></g></g></g><g fill="#0a3d83" fill-opacity="1"><g transform="translate(617.449278, 540.233475)"><g><path d="M 24.921875 -27.984375 C 25.253906 -26.015625 25.109375 -24.140625 24.484375 -22.359375 C 23.859375 -20.578125 22.695312 -19.023438 21 -17.703125 C 19.300781 -16.378906 17.066406 -15.476562 14.296875 -15 L 9.171875 -14.125 L 11.265625 -1.9375 L 3 -0.515625 L -2.828125 -34.453125 L 10.5625 -36.75 C 13.269531 -37.21875 15.632812 -37.144531 17.65625 -36.53125 C 19.6875 -35.925781 21.3125 -34.878906 22.53125 -33.390625 C 23.757812 -31.910156 24.554688 -30.109375 24.921875 -27.984375 Z M 12.546875 -21.46875 C 14.117188 -21.726562 15.226562 -22.296875 15.875 -23.171875 C 16.519531 -24.054688 16.726562 -25.175781 16.5 -26.53125 C 16.257812 -27.882812 15.6875 -28.863281 14.78125 -29.46875 C 13.882812 -30.070312 12.648438 -30.242188 11.078125 -29.984375 L 6.578125 -29.203125 L 8.046875 -20.6875 Z M 12.546875 -21.46875 "/></g></g></g><g fill="#0a3d83" fill-opacity="1"><g transform="translate(647.617612, 535.045941)"><g><path d="M 6.5625 -29.25 L 7.75 -22.390625 L 18.828125 -24.296875 L 19.921875 -17.921875 L 8.84375 -16.015625 L 10.125 -8.5625 L 22.65625 -10.71875 L 23.796875 -4.09375 L 3 -0.515625 L -2.828125 -34.453125 L 17.96875 -38.03125 L 19.09375 -31.40625 Z M 6.5625 -29.25 "/></g></g></g><g fill="#0a3d83" fill-opacity="1"><g transform="translate(673.773181, 530.548413)"><g><path d="M 33.375 -5.734375 L 25.09375 -4.3125 L 7.671875 -22.875 L 11.265625 -1.9375 L 3 -0.515625 L -2.828125 -34.453125 L 5.4375 -35.875 L 22.875 -17.21875 L 19.265625 -38.25 L 27.546875 -39.671875 Z M 33.375 -5.734375 "/></g></g></g><g fill="#0a3d83" fill-opacity="1"><g transform="translate(710.129892, 524.296768)"><g><path d="M 15.34375 -2.28125 C 12.851562 -1.851562 10.554688 -1.875 8.453125 -2.34375 C 6.347656 -2.8125 4.570312 -3.734375 3.125 -5.109375 C 1.675781 -6.492188 0.726562 -8.285156 0.28125 -10.484375 L 9.078125 -12 C 9.429688 -10.769531 10.035156 -9.890625 10.890625 -9.359375 C 11.742188 -8.828125 12.769531 -8.664062 13.96875 -8.875 C 15.1875 -9.082031 16.097656 -9.53125 16.703125 -10.21875 C 17.316406 -10.90625 17.539062 -11.742188 17.375 -12.734375 C 17.226562 -13.578125 16.828125 -14.222656 16.171875 -14.671875 C 15.515625 -15.117188 14.742188 -15.445312 13.859375 -15.65625 C 12.972656 -15.875 11.734375 -16.082031 10.140625 -16.28125 C 7.828125 -16.582031 5.921875 -16.953125 4.421875 -17.390625 C 2.921875 -17.828125 1.554688 -18.617188 0.328125 -19.765625 C -0.898438 -20.910156 -1.695312 -22.546875 -2.0625 -24.671875 C -2.601562 -27.835938 -1.882812 -30.515625 0.09375 -32.703125 C 2.082031 -34.890625 4.910156 -36.300781 8.578125 -36.9375 C 12.316406 -37.570312 15.484375 -37.191406 18.078125 -35.796875 C 20.679688 -34.398438 22.335938 -32.117188 23.046875 -28.953125 L 14.109375 -27.40625 C 13.859375 -28.5 13.304688 -29.296875 12.453125 -29.796875 C 11.597656 -30.296875 10.59375 -30.441406 9.4375 -30.234375 C 8.4375 -30.066406 7.675781 -29.664062 7.15625 -29.03125 C 6.632812 -28.394531 6.457031 -27.582031 6.625 -26.59375 C 6.8125 -25.488281 7.472656 -24.71875 8.609375 -24.28125 C 9.742188 -23.84375 11.472656 -23.457031 13.796875 -23.125 C 16.109375 -22.757812 18.007812 -22.351562 19.5 -21.90625 C 20.988281 -21.46875 22.34375 -20.691406 23.5625 -19.578125 C 24.78125 -18.460938 25.566406 -16.890625 25.921875 -14.859375 C 26.253906 -12.921875 26.066406 -11.078125 25.359375 -9.328125 C 24.648438 -7.585938 23.4375 -6.085938 21.71875 -4.828125 C 20.007812 -3.566406 17.882812 -2.71875 15.34375 -2.28125 Z M 15.34375 -2.28125 "/></g></g></g><g fill="#0a3d83" fill-opacity="1"><g transform="translate(739.863117, 519.184052)"><g><path d="M 2.03125 -31.015625 C 0.570312 -30.765625 -0.6875 -30.988281 -1.75 -31.6875 C -2.8125 -32.382812 -3.453125 -33.359375 -3.671875 -34.609375 C -3.890625 -35.898438 -3.613281 -37.050781 -2.84375 -38.0625 C -2.070312 -39.082031 -0.957031 -39.71875 0.5 -39.96875 C 1.914062 -40.207031 3.15625 -39.976562 4.21875 -39.28125 C 5.289062 -38.59375 5.9375 -37.601562 6.15625 -36.3125 C 6.375 -35.0625 6.09375 -33.925781 5.3125 -32.90625 C 4.539062 -31.882812 3.445312 -31.253906 2.03125 -31.015625 Z M 6.625 -28.921875 L 11.265625 -1.9375 L 3 -0.515625 L -1.640625 -27.5 Z M 6.625 -28.921875 "/></g></g></g><g fill="#0a3d83" fill-opacity="1"><g transform="translate(754.125399, 516.73161)"><g><path d="M 8.546875 -29.640625 C 10.453125 -29.960938 12.1875 -29.863281 13.75 -29.34375 C 15.3125 -28.820312 16.585938 -27.992188 17.578125 -26.859375 L 16.921875 -30.6875 L 25.1875 -32.109375 L 29.8125 -5.171875 C 30.25 -2.679688 30.148438 -0.347656 29.515625 1.828125 C 28.878906 4.003906 27.648438 5.863281 25.828125 7.40625 C 24.015625 8.945312 21.613281 9.972656 18.625 10.484375 C 14.625 11.171875 11.21875 10.785156 8.40625 9.328125 C 5.601562 7.867188 3.753906 5.554688 2.859375 2.390625 L 11.03125 0.984375 C 11.46875 1.984375 12.21875 2.695312 13.28125 3.125 C 14.351562 3.550781 15.597656 3.640625 17.015625 3.390625 C 18.734375 3.097656 20.007812 2.375 20.84375 1.21875 C 21.6875 0.0625 21.921875 -1.59375 21.546875 -3.75 L 20.890625 -7.5625 C 20.304688 -6.175781 19.375 -4.960938 18.09375 -3.921875 C 16.8125 -2.890625 15.21875 -2.210938 13.3125 -1.890625 C 11.09375 -1.503906 8.976562 -1.726562 6.96875 -2.5625 C 4.96875 -3.394531 3.265625 -4.773438 1.859375 -6.703125 C 0.453125 -8.640625 -0.488281 -10.992188 -0.96875 -13.765625 C -1.445312 -16.535156 -1.34375 -19.054688 -0.65625 -21.328125 C 0.03125 -23.597656 1.179688 -25.453125 2.796875 -26.890625 C 4.410156 -28.335938 6.328125 -29.253906 8.546875 -29.640625 Z M 19.25 -17.1875 C 18.882812 -19.25 18.023438 -20.773438 16.671875 -21.765625 C 15.328125 -22.765625 13.832031 -23.125 12.1875 -22.84375 C 10.550781 -22.5625 9.257812 -21.734375 8.3125 -20.359375 C 7.375 -18.984375 7.082031 -17.265625 7.4375 -15.203125 C 7.789062 -13.140625 8.644531 -11.601562 10 -10.59375 C 11.351562 -9.59375 12.847656 -9.234375 14.484375 -9.515625 C 16.128906 -9.796875 17.421875 -10.628906 18.359375 -12.015625 C 19.304688 -13.398438 19.601562 -15.125 19.25 -17.1875 Z M 19.25 -17.1875 "/></g></g></g><g fill="#0a3d83" fill-opacity="1"><g transform="translate(786.952813, 511.086839)"><g><path d="M 14.90625 -30.640625 C 17.988281 -31.171875 20.640625 -30.570312 22.859375 -28.84375 C 25.078125 -27.113281 26.492188 -24.460938 27.109375 -20.890625 L 29.828125 -5.125 L 21.625 -3.71875 L 19.109375 -18.359375 C 18.796875 -20.171875 18.082031 -21.492188 16.96875 -22.328125 C 15.851562 -23.171875 14.515625 -23.457031 12.953125 -23.1875 C 11.367188 -22.914062 10.191406 -22.195312 9.421875 -21.03125 C 8.660156 -19.875 8.4375 -18.390625 8.75 -16.578125 L 11.265625 -1.9375 L 3 -0.515625 L -3.15625 -36.296875 L 5.109375 -37.71875 L 7.25 -25.296875 C 7.875 -26.628906 8.851562 -27.773438 10.1875 -28.734375 C 11.519531 -29.691406 13.09375 -30.328125 14.90625 -30.640625 Z M 14.90625 -30.640625 "/></g></g></g><g fill="#0a3d83" fill-opacity="1"><g transform="translate(819.538484, 505.483636)"><g><path d="M 16.828125 -10.09375 L 18.03125 -3.09375 L 13.828125 -2.375 C 10.828125 -1.863281 8.363281 -2.195312 6.4375 -3.375 C 4.507812 -4.550781 3.257812 -6.796875 2.6875 -10.109375 L 0.84375 -20.84375 L -2.4375 -20.28125 L -3.625 -27.15625 L -0.34375 -27.71875 L -1.46875 -34.28125 L 6.796875 -35.703125 L 7.921875 -29.140625 L 13.34375 -30.078125 L 14.53125 -23.203125 L 9.109375 -22.265625 L 10.96875 -11.4375 C 11.101562 -10.625 11.394531 -10.070312 11.84375 -9.78125 C 12.300781 -9.5 12.984375 -9.4375 13.890625 -9.59375 Z M 16.828125 -10.09375 "/></g></g></g></svg>